<svg width="21" height="16" viewBox="0 0 21 16" fill="none" xmlns="http://www.w3.org/2000/svg">
<path d="M0.794345 16V11.6534C0.794345 10.4034 1.02872 9.10369 1.49747 7.75426C1.98042 6.39062 2.63383 5.10511 3.4577 3.89773C4.29577 2.67614 5.23327 1.64631 6.2702 0.808236L9.84974 3.13068C9.01167 4.39488 8.30855 5.71591 7.74037 7.09375C7.18639 8.45739 6.9165 9.96307 6.93071 11.6108V16H0.794345ZM11.5969 16V11.6534C11.5969 10.4034 11.8313 9.10369 12.3 7.75426C12.783 6.39062 13.4364 5.10511 14.2603 3.89773C15.0983 2.67614 16.0358 1.64631 17.0728 0.808236L20.6523 3.13068C19.8142 4.39488 19.1111 5.71591 18.5429 7.09375C17.9889 8.45739 17.7191 9.96307 17.7333 11.6108V16H11.5969Z" fill="#9E82D9"/>
</svg>
