<svg width="360" height="342" viewBox="0 0 360 342" fill="none" xmlns="http://www.w3.org/2000/svg">
<g filter="url(#filter0_f_155_1504)">
<circle cx="144.5" cy="218.5" r="53.5" fill="#DDC9EF"/>
</g>
<path d="M166.733 110.354C166.575 109.384 166.979 108.399 167.783 107.823C168.63 107.214 169.754 107.172 170.642 107.714L204.183 128.136C204.482 128.319 204.738 128.558 204.942 128.843L247.029 187.622C247.232 187.907 247.377 188.227 247.454 188.568L255.996 226.927C256.217 227.947 255.821 228.998 254.974 229.603C254.128 230.212 253.004 230.25 252.115 229.712L218.574 209.289C218.275 209.107 218.019 208.867 217.815 208.583L175.729 149.807C175.525 149.523 175.381 149.203 175.304 148.861L166.761 110.502C166.751 110.453 166.74 110.403 166.733 110.354ZM201.033 132.3L173.15 115.323L180.253 147.209L221.725 205.126L249.607 222.103L242.505 190.217L201.033 132.3Z" fill="#714BA6"/>
<path d="M81.1966 260.713C81.1053 260.146 81.1966 259.556 81.4881 259.035L137.952 156.749C138.384 155.968 139.181 155.466 140.07 155.413C140.958 155.36 141.812 155.768 142.328 156.492L200.762 238.106C201.282 238.83 201.391 239.769 201.057 240.596C200.723 241.422 199.989 242.016 199.111 242.174L84.2138 262.847C83.2268 263.023 82.2292 262.618 81.6462 261.803C81.4108 261.476 81.2598 261.099 81.1966 260.713ZM140.502 162.86L88.6642 256.771L194.152 237.79L140.502 162.86Z" fill="#714BA6"/>
<path d="M137.656 158.426C137.586 157.994 137.625 157.544 137.779 157.118C138.071 156.313 138.742 155.705 139.571 155.49L177.19 145.778C178.226 145.511 179.322 145.908 179.943 146.78L222.03 205.559C222.659 206.427 222.68 207.598 222.093 208.495L200.822 241.042C200.354 241.759 199.561 242.199 198.707 242.217C197.85 242.234 197.042 241.83 196.543 241.134L138.109 159.52C137.874 159.189 137.72 158.813 137.656 158.426ZM176.764 151.253L144.534 159.573L198.556 235.026L216.779 207.141L176.764 151.253Z" fill="#714BA6"/>
<path d="M137.656 158.426C137.649 158.377 137.642 158.328 137.635 158.278L132.419 109.11C132.338 108.364 132.588 107.619 133.097 107.067C133.606 106.515 134.33 106.216 135.082 106.237L169.374 107.337C170.558 107.376 171.566 108.213 171.822 109.37L180.368 147.729C180.653 149.09 179.842 150.462 178.482 150.81L140.863 160.522C140.133 160.708 139.356 160.571 138.738 160.139C138.159 159.738 137.772 159.119 137.656 158.426ZM137.895 111.525L142.479 154.737L174.755 146.407L167.197 112.468L137.895 111.525Z" fill="#714BA6"/>
<path d="M81.1966 260.713C81.1299 260.305 81.158 259.876 81.2985 259.461L132.542 108.002C132.936 106.846 134.077 106.118 135.286 106.255C136.497 106.388 137.453 107.348 137.579 108.562L142.795 157.73C142.852 158.261 142.743 158.796 142.486 159.26L86.0263 261.55C85.3765 262.728 83.9364 263.213 82.707 262.668C81.878 262.302 81.3336 261.553 81.1966 260.713ZM133.666 120.869L95.5276 233.595L137.551 157.467L133.666 120.869Z" fill="#714BA6"/>
<path d="M196.094 240.04C195.989 239.404 196.126 238.743 196.484 238.197L217.756 205.65C218.521 204.476 220.081 204.124 221.275 204.852L254.816 225.275C255.824 225.894 256.295 227.118 255.951 228.25L245.979 261.113C245.761 261.831 245.241 262.421 244.556 262.731C243.871 263.037 243.088 263.033 242.406 262.717L197.566 241.978C196.881 241.661 196.368 241.063 196.161 240.335C196.133 240.237 196.108 240.138 196.094 240.04ZM220.72 210.598L202.473 238.521L241.876 256.75L250.397 228.668L220.72 210.598Z" fill="#714BA6"/>
<path d="M81.1966 260.716C81.1861 260.653 81.1791 260.589 81.172 260.522C81.0526 259.183 81.9729 257.973 83.2971 257.738L198.194 237.065C198.718 236.97 199.259 237.04 199.74 237.266L244.577 258.005C245.683 258.515 246.288 259.731 246.024 260.92C245.761 262.112 244.707 262.959 243.488 262.959L83.7537 262.892C82.4787 262.889 81.4003 261.961 81.1966 260.716ZM198.307 242.322L112.792 257.709L231.676 257.759L198.307 242.322Z" fill="#714BA6"/>
<path d="M159.761 269.264C225.261 269.264 278.36 267.032 278.36 264.278C278.36 261.524 225.261 259.292 159.761 259.292C94.26 259.292 41.1611 261.524 41.1611 264.278C41.1611 267.032 94.26 269.264 159.761 269.264Z" fill="#4C3177"/>
<path d="M269.463 192.774C271.044 191.04 272.624 189.303 274.209 187.57C276.727 184.806 279.246 182.045 281.764 179.282C282.34 178.652 282.913 178.019 283.489 177.39C282.108 177.21 280.731 177.035 279.351 176.855C280.858 178.93 282.438 180.952 284.061 182.939C285.315 184.472 286.604 185.984 287.967 187.422C288.592 188.083 289.235 188.73 289.91 189.342C290.205 189.613 290.507 189.876 290.819 190.126C291.476 190.653 292.158 191.012 292.965 191.269C294.514 191.761 295.849 190.752 296.987 189.852C297.651 189.328 298.311 188.807 298.975 188.283C300.482 187.095 301.993 185.903 303.499 184.714C306.52 182.334 309.541 179.95 312.562 177.569C314.198 176.279 315.884 175.034 317.479 173.691C317.504 173.67 317.528 173.652 317.553 173.631C318.048 173.241 318.326 172.361 318.326 171.767C318.326 171.12 318.038 170.347 317.553 169.904C317.051 169.443 316.39 169.098 315.691 169.13C314.947 169.162 314.409 169.446 313.83 169.904C312.038 171.317 310.247 172.727 308.455 174.141C304.873 176.964 301.29 179.791 297.707 182.615C296.741 183.378 295.772 184.141 294.806 184.904C294.374 185.245 293.942 185.586 293.51 185.924C293.31 186.082 293.102 186.237 292.906 186.402C292.902 186.406 293.531 186.005 293.211 186.149C293.145 186.177 293.085 186.219 293.022 186.254C292.878 186.328 292.73 186.392 292.583 186.455C292.793 186.367 293.001 186.279 293.211 186.188C293.176 186.202 293.145 186.216 293.109 186.23C293.577 186.23 294.044 186.23 294.511 186.23C294.311 186.167 294.114 186.093 293.921 186.015C294.132 186.103 294.339 186.191 294.55 186.283C294.388 186.212 294.24 186.114 294.082 186.04C294.564 186.265 294.595 186.448 294.405 186.286C294.349 186.237 294.29 186.191 294.233 186.142C293.991 185.938 293.756 185.727 293.524 185.512C293.025 185.055 292.544 184.577 292.073 184.092C291.069 183.055 290.106 181.975 289.172 180.874C288.241 179.784 287.335 178.67 286.446 177.548C286.264 177.316 286.081 177.084 285.898 176.852C285.803 176.729 285.709 176.606 285.614 176.483C285.273 176.043 286.035 177.031 285.702 176.595C285.406 176.212 285.115 175.829 284.823 175.442C284.514 175.03 284.202 174.615 283.9 174.197C283.397 173.504 282.842 173.054 281.975 172.938C281.181 172.833 280.32 173.051 279.762 173.662C278.181 175.396 276.601 177.133 275.017 178.867C272.498 181.63 269.98 184.391 267.461 187.155C266.885 187.784 266.313 188.417 265.736 189.046C264.809 190.066 264.655 191.782 265.736 192.777C266.748 193.706 268.469 193.864 269.463 192.774Z" fill="#A383D6"/>
<path d="M233.702 103.206C233.752 101.103 233.797 98.997 233.846 96.8942C233.924 93.5396 233.997 90.1886 234.075 86.834C234.092 86.0674 234.11 85.2974 234.127 84.5308C233.017 85.3782 231.904 86.2257 230.794 87.0731C234.004 87.5548 237.211 88.0366 240.422 88.5183C245.03 89.2075 249.639 89.9002 254.247 90.5894C254.76 90.6668 255.276 90.7442 255.789 90.8215C256.716 90.9586 257.622 90.92 258.56 90.9094C259.41 90.8989 260.468 90.4312 260.836 89.6049C261.795 87.4318 262.754 85.2552 263.713 83.0821C265.241 79.6185 266.769 76.1514 268.297 72.6878C268.648 71.8932 268.996 71.102 269.347 70.3073C269.642 69.6357 269.814 69.0133 269.614 68.2749C269.446 67.663 268.975 67.002 268.402 66.6996C267.791 66.376 267.05 66.2143 266.372 66.4323C265.761 66.6292 265.069 67.0301 264.799 67.6454C263.84 69.8185 262.881 71.9951 261.922 74.1682C260.394 77.6318 258.866 81.0989 257.338 84.5625C256.987 85.3571 256.639 86.1483 256.288 86.943C257.046 86.507 257.805 86.071 258.564 85.6385C257.911 85.6455 257.261 85.6525 256.607 85.6631C256.839 85.6947 257.075 85.7264 257.306 85.758C254.475 85.3325 251.641 84.9071 248.81 84.4851C244.3 83.81 239.793 83.1313 235.283 82.4562C234.254 82.3015 233.228 82.1467 232.199 81.9955C231.331 81.8654 230.618 81.9147 229.902 82.4667C229.241 82.9766 228.883 83.6939 228.862 84.5378C228.813 86.6406 228.767 88.7469 228.718 90.8496C228.641 94.2042 228.567 97.5553 228.49 100.91C228.472 101.676 228.455 102.446 228.437 103.213C228.405 104.591 229.67 105.914 231.071 105.85C232.519 105.776 233.667 104.683 233.702 103.206Z" fill="#A383D6"/>
<path d="M142.023 83.2331C142.529 81.3905 143.031 79.5515 143.537 77.709C144.338 74.7904 145.135 71.8719 145.936 68.9568C146.118 68.2852 146.305 67.6136 146.487 66.942C146.712 66.1262 146.526 65.3034 146.017 64.6423C145.486 63.9531 144.801 63.6718 143.948 63.6015C139.877 63.278 135.806 62.9545 131.735 62.6275C131.176 62.5817 130.607 62.5606 130.049 62.4903C130.281 62.522 130.516 62.5536 130.748 62.5853C130.544 62.5571 130.351 62.5114 130.161 62.4411C130.372 62.529 130.579 62.6169 130.79 62.7083C130.547 62.5782 130.646 62.6943 131.085 63.0564C131.44 63.4995 131.552 63.605 131.429 63.3694C131.517 63.5804 131.605 63.7878 131.696 63.9988C131.664 63.9039 131.647 63.8195 131.633 63.721C131.664 63.9531 131.696 64.1887 131.728 64.4208C131.71 64.1993 131.717 63.9812 131.745 63.7632C131.714 63.9953 131.682 64.2309 131.65 64.463C131.777 63.5944 131.763 62.7365 131.777 61.8574C131.798 60.268 131.823 58.6786 131.844 57.0893C131.893 53.4463 131.945 49.807 131.995 46.164C132.005 45.3236 132.019 44.4832 132.03 43.6428C132.047 42.2644 130.804 40.9423 129.395 41.0056C127.952 41.0689 126.782 42.1625 126.761 43.6428C126.729 45.9109 126.698 48.1754 126.666 50.4434C126.617 54.0406 126.568 57.6378 126.515 61.2315C126.505 62.0613 126.491 62.8912 126.48 63.721C126.512 63.489 126.543 63.2534 126.575 63.0213C126.455 63.7878 126.375 64.5017 126.575 65.2647C126.887 66.4497 127.829 67.2901 128.998 67.5995C129.438 67.7156 129.898 67.7507 130.347 67.7859C131.275 67.8597 132.205 67.9336 133.133 68.0074C136.006 68.236 138.876 68.4645 141.749 68.6931C142.479 68.7529 143.214 68.8091 143.944 68.8689C143.098 67.7578 142.251 66.6431 141.405 65.5319C140.899 67.3745 140.397 69.2135 139.891 71.0561C139.09 73.9746 138.293 76.8932 137.492 79.8082C137.309 80.4798 137.123 81.1514 136.94 81.8231C136.575 83.1522 137.393 84.7521 138.781 85.0686C140.175 85.3921 141.633 84.6572 142.023 83.2331Z" fill="#A383D6"/>
<path d="M94.6775 122.763C90.4871 122.064 86.2967 121.36 82.1063 120.661C81.5092 120.562 80.912 120.46 80.3149 120.362C79.4544 120.218 78.7273 120.288 78.0177 120.833C77.3223 121.371 77.0588 122.046 76.978 122.904C76.7989 124.835 76.6233 126.769 76.4441 128.699C76.1596 131.779 75.8751 134.863 75.5906 137.943C75.5239 138.654 75.4606 139.368 75.3939 140.078C76.5039 139.23 77.6173 138.383 78.7273 137.536C75.5625 136.945 72.4013 136.358 69.2365 135.767C64.2382 134.835 59.2399 133.907 54.2416 132.975C53.1036 132.764 51.9655 132.549 50.8275 132.338C50.118 132.208 49.4365 132.229 48.7973 132.606C48.2493 132.926 47.7295 133.552 47.5854 134.181C47.2904 135.475 47.9753 137.156 49.426 137.427C52.5908 138.017 55.752 138.605 58.9168 139.195C63.9151 140.127 68.9133 141.055 73.9116 141.987C75.0497 142.198 76.1877 142.413 77.3258 142.624C78.1793 142.782 78.924 142.69 79.623 142.152C80.3184 141.614 80.5819 140.939 80.6627 140.081C80.8418 138.151 81.0174 136.217 81.1966 134.286C81.4811 131.206 81.7656 128.122 82.0501 125.042C82.1168 124.332 82.1801 123.618 82.2468 122.908C81.1368 123.755 80.0234 124.603 78.9134 125.45C83.1038 126.15 87.2943 126.853 91.4847 127.553C92.0818 127.651 92.6789 127.753 93.276 127.852C93.9926 127.971 94.6564 127.968 95.3063 127.584C95.8542 127.264 96.3741 126.638 96.5181 126.009C96.8061 124.736 96.1282 123.01 94.6775 122.763Z" fill="#A383D6"/>
<defs>
<filter id="filter0_f_155_1504" x="21" y="95" width="247" height="247" filterUnits="userSpaceOnUse" color-interpolation-filters="sRGB">
<feFlood flood-opacity="0" result="BackgroundImageFix"/>
<feBlend mode="normal" in="SourceGraphic" in2="BackgroundImageFix" result="shape"/>
<feGaussianBlur stdDeviation="35" result="effect1_foregroundBlur_155_1504"/>
</filter>
</defs>
</svg>
