<svg width="21" height="21" viewBox="0 0 21 21" fill="none" xmlns="http://www.w3.org/2000/svg">
<g clip-path="url(#clip0_14_1974)">
<path d="M10.5001 5.25C9.80789 5.25 9.1312 5.45527 8.55563 5.83986C7.98006 6.22444 7.53145 6.77107 7.26655 7.41061C7.00164 8.05015 6.93233 8.75388 7.06738 9.43282C7.20242 10.1117 7.53577 10.7354 8.02525 11.2249C8.51473 11.7144 9.13837 12.0477 9.81731 12.1827C10.4962 12.3178 11.2 12.2485 11.8395 11.9836C12.4791 11.7187 13.0257 11.2701 13.4103 10.6945C13.7949 10.1189 14.0001 9.44223 14.0001 8.75C14.0001 7.82174 13.6314 6.9315 12.975 6.27513C12.3186 5.61875 11.4284 5.25 10.5001 5.25ZM10.5001 10.5C10.154 10.5 9.81566 10.3974 9.52788 10.2051C9.24009 10.0128 9.01579 9.73947 8.88333 9.4197C8.75088 9.09993 8.71623 8.74806 8.78375 8.40859C8.85127 8.06913 9.01795 7.75731 9.26269 7.51256C9.50743 7.26782 9.81925 7.10115 10.1587 7.03363C10.4982 6.9661 10.85 7.00076 11.1698 7.13321C11.4896 7.26566 11.7629 7.48997 11.9552 7.77775C12.1475 8.06554 12.2501 8.40388 12.2501 8.75C12.2501 9.21413 12.0657 9.65925 11.7376 9.98744C11.4094 10.3156 10.9643 10.5 10.5001 10.5Z" fill="white"/>
<path d="M10.4999 20.9998C9.76311 21.0036 9.03613 20.8308 8.37984 20.4958C7.72355 20.1609 7.15705 19.6736 6.72778 19.0748C3.39316 14.4749 1.70178 11.0169 1.70178 8.79617C1.70178 6.46276 2.62872 4.22493 4.27869 2.57496C5.92866 0.92499 8.1665 -0.00195312 10.4999 -0.00195312C12.8333 -0.00195312 15.0712 0.92499 16.7211 2.57496C18.3711 4.22493 19.298 6.46276 19.298 8.79617C19.298 11.0169 17.6067 14.4749 14.272 19.0748C13.8428 19.6736 13.2763 20.1609 12.62 20.4958C11.9637 20.8308 11.2367 21.0036 10.4999 20.9998ZM10.4999 1.90817C8.67327 1.91026 6.92205 2.63681 5.63042 3.92844C4.33879 5.22006 3.61224 6.97129 3.61016 8.79792C3.61016 10.5567 5.26653 13.809 8.27303 17.9557C8.52826 18.3072 8.8631 18.5934 9.25016 18.7907C9.63721 18.988 10.0655 19.0908 10.4999 19.0908C10.9343 19.0908 11.3626 18.988 11.7497 18.7907C12.1367 18.5934 12.4715 18.3072 12.7268 17.9557C15.7333 13.809 17.3897 10.5567 17.3897 8.79792C17.3876 6.97129 16.661 5.22006 15.3694 3.92844C14.0778 2.63681 12.3265 1.91026 10.4999 1.90817Z" fill="white"/>
</g>
<defs>
<clipPath id="clip0_14_1974">
<rect width="21" height="21" fill="white"/>
</clipPath>
</defs>
</svg>
