<svg width="21" height="21" viewBox="0 0 21 21" fill="none" xmlns="http://www.w3.org/2000/svg">
<g clip-path="url(#clip0_66_1243)">
<path d="M10.5 5.25C9.80777 5.25 9.13108 5.45527 8.55551 5.83986C7.97993 6.22444 7.53133 6.77107 7.26642 7.41061C7.00152 8.05015 6.9322 8.75388 7.06725 9.43282C7.2023 10.1117 7.53564 10.7354 8.02513 11.2249C8.51461 11.7144 9.13825 12.0477 9.81719 12.1827C10.4961 12.3178 11.1999 12.2485 11.8394 11.9836C12.4789 11.7187 13.0256 11.2701 13.4101 10.6945C13.7947 10.1189 14 9.44223 14 8.75C14 7.82174 13.6313 6.9315 12.9749 6.27513C12.3185 5.61875 11.4283 5.25 10.5 5.25ZM10.5 10.5C10.1539 10.5 9.81554 10.3974 9.52775 10.2051C9.23997 10.0128 9.01567 9.73947 8.88321 9.4197C8.75076 9.09993 8.7161 8.74806 8.78363 8.40859C8.85115 8.06913 9.01782 7.75731 9.26257 7.51256C9.50731 7.26782 9.81913 7.10115 10.1586 7.03363C10.4981 6.9661 10.8499 7.00076 11.1697 7.13321C11.4895 7.26566 11.7628 7.48997 11.9551 7.77775C12.1474 8.06554 12.25 8.40388 12.25 8.75C12.25 9.21413 12.0656 9.65925 11.7374 9.98744C11.4092 10.3156 10.9641 10.5 10.5 10.5Z" fill="#714BA6"/>
<path d="M10.5003 20.9998C9.76347 21.0036 9.03649 20.8308 8.3802 20.4958C7.72392 20.1609 7.15742 19.6736 6.72815 19.0748C3.39352 14.4749 1.70215 11.0169 1.70215 8.79617C1.70215 6.46276 2.62909 4.22493 4.27906 2.57496C5.92903 0.92499 8.16686 -0.00195312 10.5003 -0.00195312C12.8337 -0.00195312 15.0715 0.92499 16.7215 2.57496C18.3715 4.22493 19.2984 6.46276 19.2984 8.79617C19.2984 11.0169 17.607 14.4749 14.2724 19.0748C13.8431 19.6736 13.2766 20.1609 12.6203 20.4958C11.9641 20.8308 11.2371 21.0036 10.5003 20.9998ZM10.5003 1.90817C8.67364 1.91026 6.92241 2.63681 5.63079 3.92844C4.33916 5.22006 3.61261 6.97129 3.61052 8.79792C3.61052 10.5567 5.2669 13.809 8.2734 17.9557C8.52863 18.3072 8.86347 18.5934 9.25052 18.7907C9.63757 18.988 10.0658 19.0908 10.5003 19.0908C10.9347 19.0908 11.363 18.988 11.75 18.7907C12.1371 18.5934 12.4719 18.3072 12.7271 17.9557C15.7336 13.809 17.39 10.5567 17.39 8.79792C17.3879 6.97129 16.6614 5.22006 15.3698 3.92844C14.0781 2.63681 12.3269 1.91026 10.5003 1.90817Z" fill="#714BA6"/>
</g>
<defs>
<clipPath id="clip0_66_1243">
<rect width="21" height="21" fill="white"/>
</clipPath>
</defs>
</svg>
