<svg width="41" height="41" viewBox="0 0 41 41" fill="none" xmlns="http://www.w3.org/2000/svg">
<path fill-rule="evenodd" clip-rule="evenodd" d="M14.1882 33.6663C13.8679 33.346 13.688 32.9115 13.688 32.4585C13.688 32.0055 13.8679 31.5711 14.1882 31.2507L24.9388 20.5002L14.1882 9.74971C14.025 9.59203 13.8949 9.4036 13.8054 9.19518C13.7158 8.98677 13.6687 8.76246 13.6667 8.53577C13.6648 8.3089 13.708 8.08391 13.7939 7.87396C13.8798 7.664 14.0066 7.47335 14.167 7.31294C14.3274 7.15253 14.5182 7.0256 14.7281 6.93967C14.9381 6.85391 15.163 6.81069 15.3898 6.81257C15.6167 6.81462 15.8408 6.86177 16.0493 6.95128C16.2577 7.0408 16.4462 7.17098 16.6038 7.33412L28.5621 19.2925C28.8825 19.6128 29.0623 20.0472 29.0623 20.5002C29.0623 20.9531 28.8825 21.3876 28.5621 21.708L16.6038 33.6663C16.2834 33.9866 15.849 34.1665 15.396 34.1665C14.943 34.1665 14.5086 33.9866 14.1882 33.6663Z" fill="white"/>
</svg>
