<svg width="41" height="41" viewBox="0 0 41 41" fill="none" xmlns="http://www.w3.org/2000/svg">
<path fill-rule="evenodd" clip-rule="evenodd" d="M13.6666 20.5209C13.6667 20.0678 13.8468 19.6334 14.1672 19.3131L26.1255 7.35473C26.4477 7.04347 26.8792 6.87127 27.3271 6.8752C27.7751 6.87913 28.2035 7.05885 28.5202 7.37557C28.837 7.6923 29.0167 8.12075 29.0206 8.56867C29.0245 9.0166 28.8523 9.44812 28.5411 9.77031L17.7905 20.5209L28.5411 31.2714C28.8523 31.5936 29.0245 32.0251 29.0206 32.473C29.0167 32.9209 28.837 33.3494 28.5202 33.6661C28.2035 33.9829 27.7751 34.1625 27.3271 34.1664C26.8792 34.1703 26.4477 33.9981 26.1255 33.6869L14.1672 21.7286C13.8468 21.4083 13.6667 20.9739 13.6666 20.5209Z" fill="white"/>
</svg>
