<svg width="22" height="22" viewBox="0 0 22 22" fill="none" xmlns="http://www.w3.org/2000/svg">
<path d="M14.4008 11.6507C15.2995 10.9436 15.9555 9.97401 16.2775 8.87678C16.5994 7.77955 16.5714 6.60924 16.1973 5.52867C15.8232 4.44811 15.1216 3.51102 14.1901 2.84778C13.2586 2.18454 12.1435 1.82813 11 1.82812C9.8565 1.82812 8.74143 2.18454 7.80993 2.84778C6.87843 3.51102 6.17681 4.44811 5.80269 5.52867C5.42857 6.60924 5.40055 7.77955 5.72253 8.87678C6.04451 9.97401 6.70047 10.9436 7.59916 11.6507C6.05923 12.2676 4.71559 13.2909 3.71148 14.6114C2.70737 15.9319 2.08043 17.5002 1.8975 19.149C1.88426 19.2694 1.89485 19.3912 1.92869 19.5075C1.96252 19.6237 2.01893 19.7322 2.09468 19.8267C2.24768 20.0175 2.47022 20.1398 2.71333 20.1665C2.95645 20.1932 3.20023 20.1223 3.39104 19.9693C3.58186 19.8163 3.70409 19.5938 3.73083 19.3507C3.93212 17.5588 4.78654 15.9038 6.13086 14.7021C7.47519 13.5003 9.21515 12.8359 11.0183 12.8359C12.8215 12.8359 14.5615 13.5003 15.9058 14.7021C17.2501 15.9038 18.1045 17.5588 18.3058 19.3507C18.3308 19.5759 18.4382 19.7839 18.6075 19.9346C18.7768 20.0853 18.9959 20.1679 19.2225 20.1665H19.3233C19.5636 20.1388 19.7832 20.0173 19.9343 19.8285C20.0854 19.6396 20.1558 19.3987 20.13 19.1582C19.9462 17.5047 19.3159 15.9324 18.3066 14.6098C17.2973 13.2873 15.9472 12.2644 14.4008 11.6507ZM11 10.9998C10.2748 10.9998 9.56589 10.7848 8.96291 10.3819C8.35993 9.97899 7.88996 9.40633 7.61244 8.73634C7.33492 8.06634 7.2623 7.3291 7.40378 6.61783C7.54526 5.90657 7.89448 5.25323 8.40727 4.74044C8.92006 4.22765 9.5734 3.87843 10.2847 3.73695C10.9959 3.59547 11.7332 3.66808 12.4032 3.9456C13.0732 4.22313 13.6458 4.69309 14.0487 5.29607C14.4516 5.89905 14.6667 6.60796 14.6667 7.33316C14.6667 8.30562 14.2804 9.23826 13.5927 9.92589C12.9051 10.6135 11.9725 10.9998 11 10.9998Z" fill="white"/>
</svg>
