<svg width="22" height="22" viewBox="0 0 22 22" fill="none" xmlns="http://www.w3.org/2000/svg">
<path d="M14.4005 11.6507C15.2992 10.9436 15.9551 9.97401 16.2771 8.87678C16.5991 7.77955 16.5711 6.60924 16.1969 5.52867C15.8228 4.44811 15.1212 3.51102 14.1897 2.84778C13.2582 2.18454 12.1431 1.82813 10.9996 1.82812C9.85613 1.82812 8.74107 2.18454 7.80957 2.84778C6.87806 3.51102 6.17645 4.44811 5.80233 5.52867C5.4282 6.60924 5.40018 7.77955 5.72216 8.87678C6.04414 9.97401 6.7001 10.9436 7.5988 11.6507C6.05887 12.2676 4.71523 13.2909 3.71112 14.6114C2.707 15.9319 2.08006 17.5002 1.89713 19.149C1.88389 19.2694 1.89449 19.3912 1.92832 19.5075C1.96215 19.6237 2.01856 19.7322 2.09432 19.8267C2.24731 20.0175 2.46985 20.1398 2.71296 20.1665C2.95608 20.1932 3.19986 20.1223 3.39068 19.9693C3.5815 19.8163 3.70372 19.5938 3.73046 19.3507C3.93175 17.5588 4.78618 15.9038 6.1305 14.7021C7.47482 13.5003 9.21479 12.8359 11.018 12.8359C12.8211 12.8359 14.5611 13.5003 15.9054 14.7021C17.2498 15.9038 18.1042 17.5588 18.3055 19.3507C18.3304 19.5759 18.4379 19.7839 18.6071 19.9346C18.7764 20.0853 18.9955 20.1679 19.2221 20.1665H19.323C19.5633 20.1388 19.7829 20.0173 19.934 19.8285C20.0851 19.6396 20.1554 19.3987 20.1296 19.1582C19.9458 17.5047 19.3155 15.9324 18.3062 14.6098C17.297 13.2873 15.9468 12.2644 14.4005 11.6507ZM10.9996 10.9998C10.2744 10.9998 9.56552 10.7848 8.96254 10.3819C8.35956 9.97899 7.88959 9.40633 7.61207 8.73634C7.33455 8.06634 7.26194 7.3291 7.40342 6.61783C7.5449 5.90657 7.89411 5.25323 8.40691 4.74044C8.9197 4.22765 9.57304 3.87843 10.2843 3.73695C10.9956 3.59547 11.7328 3.66808 12.4028 3.9456C13.0728 4.22313 13.6455 4.69309 14.0484 5.29607C14.4513 5.89905 14.6663 6.60796 14.6663 7.33316C14.6663 8.30562 14.28 9.23826 13.5924 9.92589C12.9047 10.6135 11.9721 10.9998 10.9996 10.9998Z" fill="#714BA6"/>
</svg>
