<?xml version="1.0" encoding="utf-8"?>
<!-- Generator: Adobe Illustrator 26.4.1, SVG Export Plug-In . SVG Version: 6.00 Build 0)  -->
<svg version="1.1" id="Capa_1" xmlns="http://www.w3.org/2000/svg" xmlns:xlink="http://www.w3.org/1999/xlink" x="0px" y="0px"
	 viewBox="0 0 500 122" style="enable-background:new 0 0 500 122;" xml:space="preserve">
<style type="text/css">
	.st0{fill:#E6E6FF;}
	.st1{fill:#4A40A3;}
	.st2{fill:url(#SVGID_1_);}
	.st3{opacity:0.6;fill:#FFFFFF;}
	.st4{fill:#FFFFFF;}
	.st5{opacity:0.8;fill:#FFFFFF;}
	.st6{opacity:0.5;fill:#FFFFFF;}
	.st7{opacity:0.7;fill:#FFFFFF;}
	.st8{opacity:0.9;fill:#FFFFFF;}
	.st9{opacity:0.8;}
	.st10{fill:none;stroke:#FFFFFF;stroke-miterlimit:10;}
	.st11{fill:url(#SVGID_00000144335339366269080420000014344719914763906493_);}
</style>
<linearGradient id="SVGID_1_" gradientUnits="userSpaceOnUse" x1="32.2792" y1="51.4664" x2="75.4702" y2="51.4664">
	<stop  offset="0" style="stop-color:#3F4790"/>
	<stop  offset="0.472" style="stop-color:#545CA2"/>
	<stop  offset="0.9058" style="stop-color:#636AAF"/>
</linearGradient>
<polygon class="st2" points="55.69,15.09 36.56,26.73 32.28,42.64 33.8,55.58 35.24,69.46 42.43,86.88 54.57,87.85 52.27,80.81 
	50.05,74.05 54.57,87.85 71.03,71.9 75.47,50.87 73.04,38.99 "/>
<polygon class="st3" points="33.87,55.58 36.38,58.19 39.31,39.35 32.35,42.64 "/>
<polygon class="st4" points="55.76,15.09 36.63,26.73 41.98,26.83 "/>
<polygon class="st5" points="47.36,35 41.98,26.83 55.76,15.09 "/>
<polygon class="st3" points="39.31,39.35 41.98,26.83 47.36,35 "/>
<polygon class="st5" points="32.35,42.64 39.31,39.35 41.98,26.83 36.63,26.73 "/>
<polygon class="st4" points="42.62,58.31 36.38,58.19 39.31,39.35 47.36,35 "/>
<polygon class="st5" points="36.38,58.19 43.73,72.98 50.12,74.05 42.62,58.31 "/>
<polygon class="st4" points="35.3,69.46 43.73,72.98 36.38,58.19 33.87,55.58 "/>
<polygon class="st3" points="47.36,35 59.68,35.17 55.76,15.09 "/>
<polygon class="st4" points="73.1,38.99 59.68,35.17 55.76,15.09 "/>
<polygon class="st6" points="59.92,74.23 50.12,74.05 42.62,58.31 47.36,35 59.68,35.17 65.13,56.18 "/>
<polygon class="st3" points="75.54,50.87 73.1,38.99 59.68,35.17 65.13,56.18 "/>
<polygon class="st5" points="71.03,71.9 59.85,74.23 65.06,56.18 75.47,50.87 "/>
<polygon class="st7" points="54.64,87.85 59.92,74.23 50.12,74.05 "/>
<polygon class="st4" points="71.05,71.9 54.59,87.85 59.87,74.23 "/>
<polygon class="st4" points="43.68,72.98 52.29,80.81 50.07,74.05 "/>
<polygon class="st5" points="54.59,87.85 46.66,80.84 43.68,72.98 52.29,80.81 "/>
<polygon class="st7" points="35.26,69.46 42.43,86.88 42.18,76.79 "/>
<polygon class="st4" points="54.57,87.85 42.43,86.88 46.64,80.84 "/>
<polygon class="st8" points="42.16,76.79 42.43,86.88 46.64,80.84 "/>
<polygon class="st3" points="35.26,69.46 43.68,72.98 46.66,80.84 42.18,76.79 "/>
<g>
	<path class="st4" d="M115.83,42.13c-0.53,0-0.74-0.27-0.64-0.82c0.1-0.55,0.37-1.16,0.79-1.83c0.43-0.67,0.98-1.28,1.65-1.83
		c0.67-0.55,1.33-0.83,1.98-0.83c1.95,0,3.97,0.03,6.05,0.09c2.08,0.06,4.3,0.09,6.66,0.09c4.11,0,7.47,0.67,10.08,2.02
		c2.6,1.34,4.54,3.12,5.8,5.34c1.26,2.22,1.89,4.75,1.89,7.57c0,2.83-0.51,5.72-1.53,8.67c-1.02,2.95-2.51,5.84-4.49,8.67
		c-1.98,2.83-4.33,5.35-7.05,7.57c-2.73,2.22-5.78,4-9.16,5.35c-3.38,1.34-6.98,2.02-10.81,2.02c-3.14,0-5.79-0.31-7.97-0.92
		c-2.18-0.61-3.96-1.39-5.34-2.32c-1.38-0.94-2.44-1.97-3.17-3.08c-0.73-1.12-1.22-2.19-1.47-3.21c-0.24-0.94-0.04-1.53,0.61-1.77
		c0.65-0.25,1.45-0.3,2.38-0.15c0.94,0.14,1.83,0.42,2.69,0.83c0.86,0.41,1.36,0.77,1.53,1.1c0.69,1.67,1.58,3,2.66,4
		c1.08,1,2.24,1.76,3.48,2.29c1.24,0.53,2.53,0.87,3.88,1.04c1.34,0.16,2.63,0.25,3.85,0.25c2.73,0,5.34-0.58,7.85-1.74
		c2.5-1.16,4.78-2.69,6.84-4.58c2.06-1.89,3.85-4.03,5.37-6.41c1.53-2.38,2.68-4.83,3.45-7.33c0.77-2.5,1.14-4.96,1.1-7.36
		c-0.04-2.4-0.6-4.54-1.68-6.41c-1.08-1.87-2.73-3.38-4.94-4.52c-2.22-1.14-5.1-1.71-8.64-1.71c-0.85,0-1.85,0-2.99,0
		c-1.14,0-2.32-0.01-3.54-0.03c-1.22-0.02-2.45-0.03-3.7-0.03C118.04,42.13,116.89,42.13,115.83,42.13z M123.65,50.07
		c0.29-0.57,0.73-1.09,1.34-1.56c0.61-0.47,1.27-0.88,1.98-1.22c0.71-0.35,1.44-0.61,2.17-0.8c0.73-0.18,1.36-0.27,1.89-0.25
		c0.53,0.02,0.93,0.17,1.19,0.43c0.27,0.26,0.28,0.64,0.03,1.13c-0.24,0.53-0.82,1.53-1.74,2.99c-0.92,1.47-2.03,3.17-3.33,5.1
		c-1.3,1.94-2.69,3.99-4.15,6.17c-1.47,2.18-2.85,4.23-4.15,6.14c-1.3,1.91-2.43,3.59-3.39,5.04c-0.96,1.45-1.56,2.39-1.8,2.84
		c-0.37,0.65-0.74,1.05-1.13,1.19c-0.39,0.14-0.73,0.11-1.04-0.09c-0.31-0.2-0.53-0.54-0.67-1.01c-0.14-0.47-0.15-0.97-0.03-1.5
		c0.08-0.36,0.41-1.13,0.98-2.29c0.57-1.16,1.26-2.51,2.08-4.06c0.81-1.55,1.7-3.23,2.66-5.04c0.96-1.81,1.89-3.56,2.81-5.25
		c0.92-1.69,1.76-3.25,2.53-4.67C122.65,51.94,123.24,50.85,123.65,50.07z"/>
	<path class="st4" d="M150.6,65.86c0.85-0.63,1.59-1.11,2.2-1.44c0.2-0.12,0.51-0.26,0.92-0.43c0.41-0.16,0.83-0.3,1.25-0.43
		c0.43-0.12,0.83-0.22,1.22-0.31c0.39-0.08,0.68-0.08,0.89,0c0.29,0.12,0.38,0.51,0.27,1.16c-0.1,0.65-0.3,1.43-0.61,2.32
		c-0.31,0.9-0.66,1.84-1.07,2.84c-0.41,1-0.76,1.92-1.07,2.78c-0.31,0.85-0.51,1.56-0.61,2.11c-0.1,0.55,0.01,0.82,0.33,0.82
		c0.98,0,2.14-0.27,3.48-0.82c1.34-0.55,2.69-1.2,4.03-1.95c1.34-0.75,1.72-2.29,2.84-3.04c1.12-0.75,2.27-1.8,2.8-2.21
		c1.02-0.77,1.9-0.8,2.17-0.55c0.26,0.24-0.96,0.21-1.81,0.98c-1.18,0.98-3.1,3.04-4.69,4.13c-1.59,1.1-1.52,2.61-3.26,3.48
		c-1.75,0.88-3.52,1.57-5.31,2.08c-1.79,0.51-3.46,0.68-5.01,0.52c-0.57-0.04-0.99-0.23-1.25-0.58c-0.27-0.35-0.4-0.78-0.4-1.31
		c0-0.53,0.08-1.11,0.25-1.74c0.16-0.63,0.39-1.29,0.67-1.98c0.65-1.59,1.57-3.36,2.75-5.31c-0.49,0.28-0.96,0.59-1.4,0.91
		c-0.9,0.57-1.87,1.26-2.93,2.08c-0.49,0.37-0.83,0.55-1.04,0.55c-0.2,0-0.3-0.11-0.27-0.33c0.02-0.22,0.14-0.5,0.37-0.83
		c0.22-0.32,0.52-0.63,0.88-0.92C148.61,67.35,149.75,66.49,150.6,65.86z M158.57,48.79c-0.55,0.69-0.95,1.41-1.19,2.17
		c-0.24,0.76-0.34,1.53-0.27,2.32c0.06,0.79,0.32,1.52,0.77,2.17c0.4,0.69,0.96,1.04,1.68,1.04c0.71,0,1.35-0.15,1.92-0.46
		c0.57-0.31,1-0.7,1.28-1.19c0.29-0.49,0.22-0.89-0.18-1.22c-0.41-0.33-0.75-0.73-1.04-1.22c-0.28-0.49-0.48-1.01-0.58-1.56
		c-0.1-0.55-0.11-1.09-0.03-1.62c0.08-0.53,0.28-0.98,0.61-1.34c0.65-0.69,0.92-1.16,0.8-1.41c-0.12-0.24-0.71-0.04-1.77,0.61
		C159.78,47.53,159.12,48.1,158.57,48.79z"/>
	<path class="st4" d="M178.84,64.85c-0.49,0.73-1.04,1.34-1.65,1.83c-0.57,0.45-1.23,0.82-1.98,1.1c-0.76,0.29-1.62,0.33-2.6,0.12
		c-1.34-0.28-2.64-0.17-3.88,0.34c-1.24,0.51-2.27,1.17-3.08,1.99c-0.81,0.81-1.31,1.66-1.5,2.53c-0.18,0.88,0.09,1.54,0.82,1.98
		c0.49,0.33,1.13,0.38,1.92,0.15c0.79-0.22,1.66-0.59,2.6-1.1c0.94-0.51,1.9-1.1,2.9-1.77c1-0.67,1.94-1.31,2.84-1.92
		c0.89-0.61,1.72-1.13,2.47-1.56c0.75-0.43,1.33-0.64,1.74-0.64c0.41,0,0.65,0.14,0.73,0.43c0.08,0.28,0.08,0.64,0,1.07
		c-0.08,0.43-0.19,0.9-0.34,1.41c-0.14,0.51-0.21,0.98-0.21,1.4c0,0.43,0.11,0.79,0.34,1.07c0.22,0.29,0.66,0.43,1.31,0.43
		c0.98,0,2.09-0.26,3.33-0.77c1.24-0.51,2.72-1.44,2.92-0.87c0.28,0.79-4.18,3.34-5.91,4.07c-1.73,0.73-3.23,1.1-4.49,1.1
		c-1.22,0-2.06-0.23-2.5-0.7c-0.45-0.47-0.69-0.99-0.73-1.56c-0.04-0.57,0.02-1.1,0.18-1.59c0.16-0.49,0.26-0.75,0.31-0.79
		c-0.08,0.08-0.56,0.47-1.43,1.16c-0.88,0.69-1.97,1.44-3.3,2.23c-1.32,0.79-2.77,1.5-4.34,2.11c-1.57,0.61-3.04,0.83-4.43,0.67
		c-1.06-0.08-1.56-0.61-1.5-1.59c0.06-0.97,0.51-2.13,1.34-3.45c0.83-1.32,1.96-2.7,3.39-4.12c1.43-1.42,2.98-2.64,4.67-3.63
		c1.69-1,3.42-1.66,5.19-1.99C175.76,63.67,177.37,63.96,178.84,64.85z"/>
	<path class="st4" d="M186.64,68.88c0.57-0.49,1.32-1.11,2.26-1.86c0.94-0.75,1.92-1.46,2.96-2.14c1.04-0.67,2.04-1.23,2.99-1.68
		c0.96-0.45,1.72-0.63,2.29-0.55c0.28,0.04,0.45,0.21,0.49,0.52c0.04,0.31,0,0.69-0.12,1.16c-0.12,0.47-0.3,0.99-0.55,1.56
		c-0.25,0.57-0.53,1.16-0.86,1.77c-0.73,1.38-1.67,2.95-2.81,4.7c2.52-1.91,4.84-3.6,6.96-5.07c0.9-0.61,1.79-1.21,2.69-1.8
		c0.9-0.59,1.72-1.09,2.47-1.5c0.75-0.41,1.42-0.72,2.01-0.95c0.59-0.22,1.01-0.27,1.25-0.15c0.41,0.2,0.62,0.6,0.64,1.19
		c0.02,0.59-0.07,1.28-0.28,2.08c-0.2,0.79-0.48,1.63-0.82,2.5c-0.35,0.88-0.66,1.7-0.95,2.47c-0.29,0.78-0.5,1.45-0.64,2.02
		c-0.14,0.57-0.11,0.92,0.09,1.04c2.08-2.03,4.01-3.78,5.8-5.25c0.77-0.61,1.55-1.21,2.32-1.8c0.77-0.59,1.5-1.08,2.2-1.47
		c0.69-0.39,1.31-0.67,1.86-0.86c0.55-0.18,0.99-0.19,1.31-0.03c0.45,0.2,0.75,0.56,0.92,1.07c0.16,0.51,0.27,1.07,0.3,1.68
		c0.04,0.61,0.06,1.24,0.06,1.89c0,0.65,0.04,1.25,0.12,1.8c0.08,0.55,0.24,1,0.49,1.34c0.24,0.35,0.65,0.52,1.22,0.52
		c0.85,0,1.8-0.2,2.84-0.61c1.04-0.4,2.05-0.87,3.06-1.4c0.99-0.53,0.82-1.9,1.65-2.43c0.84-0.53,1.56-1.21,2.01-1.5
		c1.06-0.69,2.16-1.35,2.4-1.02c0.24,0.33-1.71,1.28-2.6,1.89c-0.45,0.33-0.79,0.76-1.93,1.54c-1.14,0.77-0.73,2.8-2.24,3.63
		c-1.51,0.83-3.1,1.57-4.76,2.2c-1.67,0.63-3.22,0.95-4.64,0.95c-1.43,0-2.43-0.33-3.02-0.98c-0.59-0.65-0.97-1.38-1.13-2.2
		c-0.16-0.93-0.14-1.99,0.06-3.17c-0.45,0-1.01,0.24-1.68,0.7c-0.67,0.47-1.4,1.06-2.17,1.77c-0.77,0.71-1.6,1.49-2.47,2.32
		c-0.87,0.83-1.73,1.61-2.56,2.32c-0.84,0.71-1.66,1.3-2.47,1.77c-0.82,0.47-1.55,0.7-2.2,0.7c-0.69,0-1.16-0.21-1.41-0.64
		c-0.24-0.43-0.35-0.97-0.31-1.65c0.04-0.67,0.18-1.41,0.43-2.23c0.25-0.82,0.48-1.61,0.7-2.38c0.22-0.77,0.41-1.47,0.55-2.08
		c0.14-0.61,0.15-1.06,0.03-1.34c-0.2,0.04-0.7,0.33-1.5,0.86c-0.79,0.53-1.73,1.16-2.81,1.89c-1.08,0.73-2.24,1.53-3.48,2.38
		c-1.24,0.85-2.42,1.62-3.54,2.29c-1.12,0.67-2.11,1.21-2.96,1.62c-0.85,0.4-1.43,0.52-1.71,0.36c-0.28-0.12-0.32-0.5-0.09-1.13
		c0.22-0.63,0.59-1.37,1.1-2.23c0.51-0.85,1.09-1.76,1.74-2.72c-1.34,1.96,0.18-0.29,1.83-2.66c0.57-0.81,1.04-1.48,1.4-2.02
		c0.37-0.53,0.53-0.79,0.49-0.79c-0.2,0-0.7,0.22-1.5,0.67c-0.79,0.45-1.78,1.1-2.96,1.96c-0.53,0.36-0.92,0.58-1.19,0.64
		c-0.26,0.06-0.43,0.02-0.49-0.12c-0.06-0.14-0.02-0.35,0.12-0.61C186.08,69.38,186.32,69.13,186.64,68.88z"/>
	<path class="st4" d="M244.05,64.85c-0.49,0.73-1.04,1.34-1.65,1.83c-0.57,0.45-1.23,0.82-1.99,1.1c-0.75,0.29-1.62,0.33-2.59,0.12
		c-1.34-0.28-2.64-0.17-3.88,0.34c-1.24,0.51-2.27,1.17-3.08,1.99c-0.81,0.81-1.31,1.66-1.5,2.53c-0.18,0.88,0.09,1.54,0.82,1.98
		c0.49,0.33,1.13,0.38,1.92,0.15c0.79-0.22,1.66-0.59,2.6-1.1c0.93-0.51,1.9-1.1,2.9-1.77c1-0.67,1.94-1.31,2.84-1.92
		c0.9-0.61,1.72-1.13,2.47-1.56c0.75-0.43,1.33-0.64,1.74-0.64c0.41,0,0.65,0.14,0.73,0.43c0.08,0.28,0.08,0.64,0,1.07
		c-0.08,0.43-0.19,0.9-0.34,1.41c-0.14,0.51-0.21,0.98-0.21,1.4c0,0.43,0.11,0.79,0.34,1.07c0.22,0.29,0.66,0.43,1.31,0.43
		c0.98,0,2.09-0.26,3.33-0.77c1.24-0.51,2.44-1.09,3.6-1.74c1.16-0.65,2.18-1.27,3.05-1.86c0.88-0.59,1.48-0.99,1.81-1.19
		c0.61-0.41,0.14-0.98,0.38-0.68c0.24,0.31,0.1,1.79-0.67,2.31c-0.41,0.29-0.47,0.32-1.76,1.18c-1.28,0.85-2.74,1.75-4.37,2.69
		c-1.63,0.93-3.31,1.77-5.04,2.5c-1.73,0.73-3.23,1.1-4.49,1.1c-1.22,0-2.06-0.23-2.5-0.7c-0.45-0.47-0.69-0.99-0.73-1.56
		c-0.04-0.57,0.02-1.1,0.18-1.59c0.16-0.49,0.26-0.75,0.3-0.79c-0.08,0.08-0.56,0.47-1.43,1.16c-0.88,0.69-1.98,1.44-3.3,2.23
		c-1.32,0.79-2.77,1.5-4.34,2.11c-1.57,0.61-3.04,0.83-4.43,0.67c-1.06-0.08-1.56-0.61-1.5-1.59c0.06-0.97,0.51-2.13,1.35-3.45
		c0.83-1.32,1.96-2.7,3.39-4.12c1.43-1.42,2.98-2.64,4.67-3.63c1.69-1,3.42-1.66,5.19-1.99C240.96,63.67,242.58,63.96,244.05,64.85z
		"/>
	<path class="st4" d="M251.95,68.51c0.49-0.36,1.15-0.86,1.98-1.5c0.83-0.63,1.71-1.25,2.63-1.86c0.92-0.61,1.81-1.13,2.69-1.56
		c0.87-0.43,1.6-0.64,2.17-0.64c0.53,0,0.76,0.23,0.67,0.7c-0.08,0.47-0.33,1.06-0.73,1.77c-0.41,0.71-0.91,1.49-1.5,2.32
		c-0.59,0.83-1.13,1.61-1.62,2.32c-0.49,0.71-0.86,1.3-1.13,1.77c-0.26,0.47-0.25,0.7,0.03,0.7c0.41,0,1.12-0.35,2.14-1.07
		c1.02-0.71,2.19-1.49,3.51-2.32c1.32-0.83,2.74-1.61,4.24-2.32c1.5-0.71,2.93-1.07,4.27-1.07c0.57,0,0.93,0.19,1.07,0.58
		c0.14,0.39,0.21,0.88,0.21,1.5c0,0.61-0.02,1.25-0.06,1.92c-0.04,0.67,0.02,1.32,0.18,1.93c0.16,0.61,0.5,1.11,1.01,1.5
		c0.51,0.39,1.29,0.58,2.35,0.58c1.3,0,2.61-0.2,3.94-0.61c1.32-0.4,2.56-0.88,3.72-1.43c1.16-0.55,0.87-3.09,1.83-3.7
		c0.95-0.61-0.69-1.68-0.08-2.09c0.61-0.41,0.79,0.93,1.1,0.87c0.3-0.06,0.24-0.2,0.3-0.06c0.06,0.14,0.06,1.41-0.11,1.71
		c-0.16,0.31,0.33,0.98-0.08,1.26c-0.41,0.33,0.32,1.27-0.95,2.09c-1.26,0.82-0.82,0.99-2.51,1.85c-1.69,0.85-3.5,1.62-5.44,2.29
		c-1.93,0.67-3.77,1.01-5.53,1.01c-1.02,0-1.88-0.1-2.6-0.31c-0.71-0.2-1.31-0.48-1.8-0.82c-0.49-0.35-0.89-0.74-1.19-1.19
		c-0.31-0.45-0.54-0.89-0.7-1.34c-0.41-1.05-0.51-2.3-0.31-3.72c-0.73,0.16-1.72,0.66-2.96,1.49c-1.24,0.83-2.55,1.72-3.94,2.66
		c-1.39,0.93-2.73,1.78-4.03,2.53c-1.3,0.75-2.36,1.13-3.17,1.13c-0.53,0-0.78-0.22-0.76-0.67c0.02-0.44,0.19-1.02,0.52-1.71
		c0.33-0.69,0.75-1.44,1.28-2.23c0.53-0.8,1.03-1.54,1.5-2.23c0.47-0.69,0.83-1.26,1.1-1.71c0.26-0.45,0.34-0.67,0.21-0.67
		c-0.45,0-0.87,0.11-1.25,0.34c-0.39,0.22-0.93,0.6-1.62,1.13c-0.49,0.36-0.91,0.6-1.25,0.7c-0.35,0.1-0.57,0.1-0.67,0
		c-0.1-0.1-0.05-0.3,0.16-0.61C250.99,69.4,251.38,69,251.95,68.51z"/>
	<path class="st4" d="M286.9,59.17c0.73-1.42,1.55-2.84,2.44-4.25c0.9-1.4,1.88-2.76,2.93-4.06c0.73-0.89,1.53-1.7,2.38-2.41
		c0.86-0.71,1.7-1.3,2.54-1.77c0.83-0.47,1.6-0.8,2.29-1.01c0.69-0.2,1.26-0.25,1.71-0.12c0.89,0.2,1.37,0.68,1.44,1.43
		c0.06,0.76-0.17,1.68-0.67,2.78c-0.51,1.1-1.23,2.3-2.17,3.6c-0.94,1.3-1.95,2.62-3.05,3.97c1.59-0.25,3.03-0.44,4.34-0.58
		c1.3-0.14,2.3-0.19,2.99-0.15c0.57,0.04,0.86,0.24,0.86,0.58c0,0.34-0.17,0.71-0.49,1.1c-0.33,0.39-0.77,0.73-1.31,1.04
		c-0.55,0.3-1.09,0.42-1.62,0.34c-0.73-0.08-1.74-0.08-3.02,0c-1.28,0.08-2.66,0.22-4.12,0.43c-0.89,0.98-1.76,1.89-2.6,2.75
		c-0.83,0.86-1.6,1.61-2.29,2.26c-0.49,1.22-0.87,2.37-1.13,3.45c-0.27,1.08-0.4,2.03-0.4,2.87c0,0.84,0.18,1.5,0.52,1.98
		c0.35,0.49,0.9,0.75,1.68,0.8c1.14,0.08,2.27-0.08,3.39-0.49c1.12-0.41,2.21-0.94,3.27-1.59c1.06-0.65,0.88-1.73,1.84-2.44
		c0.96-0.71,0.88-1.48,1.62-2.01c0.89-0.61,1.49-1.09,1.65-0.79c0.17,0.31-0.92,1.59-1.65,2.21c-0.78,0.61,1.08,1.42-0.1,2.33
		c-1.18,0.92-2.48,1.8-3.88,2.66c-1.4,0.86-2.87,1.59-4.39,2.2c-1.53,0.61-3,0.91-4.43,0.91c-1.38,0-2.42-0.44-3.11-1.31
		c-0.69-0.88-1.08-2.06-1.16-3.54c-0.08-1.49,0.11-3.18,0.58-5.1c0.47-1.91,1.17-3.91,2.11-5.98c-0.57,0.08-1.05,0.15-1.44,0.21
		c-0.39,0.06-0.66,0.09-0.82,0.09c-0.41,0.04-0.71-0.01-0.92-0.15c-0.2-0.14-0.31-0.31-0.34-0.52c-0.02-0.2,0.07-0.42,0.27-0.64
		c0.21-0.22,0.53-0.37,0.98-0.46L286.9,59.17z M290.87,61.74c0.24-0.25,0.49-0.48,0.73-0.71c0.24-0.22,0.47-0.46,0.67-0.7
		c-0.12,0-0.25,0.01-0.37,0.03c-0.12,0.02-0.24,0.03-0.36,0.03L290.87,61.74z M300.58,47.87c-0.25-0.08-0.64,0.13-1.19,0.64
		c-0.55,0.51-1.18,1.23-1.89,2.17c-0.71,0.94-1.48,2.05-2.29,3.33c-0.81,1.28-1.61,2.61-2.38,4c0.28-0.04,0.57-0.08,0.85-0.12
		c0.29-0.04,0.57-0.1,0.86-0.18c1.14-1.35,2.14-2.59,3.02-3.73c0.87-1.14,1.58-2.15,2.11-3.02c0.53-0.88,0.88-1.58,1.04-2.11
		C300.87,48.32,300.83,47.99,300.58,47.87z"/>
	<path class="st4" d="M314.75,63.63c0.65,0.81,0.61,1.69-0.12,2.63c-0.73,0.94-1.8,1.86-3.21,2.78c-1.4,0.92-2.99,1.75-4.76,2.5
		c-1.77,0.76-3.35,1.36-4.73,1.8c0.37,0.9,1.01,1.62,1.93,2.17c0.92,0.55,2.07,0.74,3.45,0.58c1.26-0.12,2.62-0.48,4.06-1.07
		c1.44-0.59,2.87-1.26,4.27-2.02c1.41-0.75,2.73-1.54,3.97-2.35c1.24-0.81,2.31-1.53,3.21-2.14c0.98-0.69,1.61-0.95,1.89-0.76
		c0.28,0.18,0.02,0.64-0.79,1.37c-2.56,2.28-5.22,4.19-7.97,5.74c-2.75,1.55-5.37,2.64-7.85,3.3c-2.48,0.65-4.7,0.84-6.66,0.58
		c-1.95-0.27-3.44-1.07-4.46-2.41c-0.78-1.02-0.99-2.17-0.64-3.45c0.34-1.28,1.05-2.56,2.11-3.85c1.06-1.28,2.35-2.46,3.88-3.54
		c1.53-1.08,3.08-1.91,4.67-2.5c1.59-0.59,3.07-0.88,4.46-0.85C312.84,62.15,313.94,62.65,314.75,63.63z M305.77,65.77
		c-1.55,0.89-2.64,1.9-3.27,3.02c-0.64,1.12-0.91,2.21-0.82,3.27c1.34-0.49,3.13-1.26,5.37-2.32c0.89-0.41,1.62-1.01,2.17-1.81
		c0.55-0.79,0.8-1.48,0.76-2.07c-0.04-0.59-0.39-0.96-1.04-1.1C308.3,64.62,307.24,64.95,305.77,65.77z"/>
	<path class="st4" d="M351.57,63.51c-0.41,0.78-0.89,1.42-1.46,1.95c-0.49,0.49-1.1,0.91-1.83,1.25c-0.73,0.35-1.61,0.46-2.63,0.34
		c-1.34-0.12-2.62,0.12-3.82,0.73c-1.2,0.61-2.16,1.36-2.87,2.26c-0.71,0.9-1.13,1.78-1.25,2.66c-0.12,0.88,0.2,1.52,0.98,1.92
		c0.65,0.33,1.47,0.33,2.47,0c1-0.32,2.08-0.85,3.24-1.56c1.16-0.71,2.35-1.57,3.57-2.56c1.22-1,2.36-2.01,3.42-3.02
		c0.49-1.67,1.15-3.43,1.98-5.28c0.83-1.85,1.76-3.67,2.78-5.47c1.02-1.79,2.08-3.5,3.18-5.13c1.1-1.63,2.18-3.05,3.24-4.28
		c1.62-1.87,3.11-3.16,4.46-3.88c1.34-0.71,2.44-1.07,3.3-1.07c1.22,0,1.91,0.35,2.08,1.07c0.16,0.71-0.02,1.65-0.56,2.81
		c-0.53,1.16-1.34,2.49-2.44,3.97c-1.1,1.49-2.31,3.01-3.63,4.58c-1.32,1.57-2.68,3.1-4.06,4.61c-1.38,1.51-2.65,2.85-3.78,4.03
		c-0.61,1.34-1.11,2.63-1.5,3.85c-0.39,1.22-0.64,2.3-0.76,3.24c-0.12,0.94-0.07,1.69,0.15,2.26c0.23,0.57,0.66,0.88,1.31,0.92
		c1.1,0.08,2.22-0.05,3.36-0.4c1.14-0.34,2.23-0.81,3.27-1.4c1.04-0.59,2.03-1.22,2.99-1.89c0.96-0.67-0.12-1.82,0.62-2.35
		c0.86-0.61,1.1-0.25,1.3,0.08c0.2,0.33,0.06,1.75-0.67,2.32c-0.77,0.61,0.33,0.41-0.85,1.28c-1.18,0.88-2.48,1.73-3.91,2.57
		c-1.43,0.83-2.9,1.53-4.43,2.11c-1.53,0.57-3,0.86-4.43,0.86c-1.79,0-2.93-0.65-3.42-1.95c-0.49-1.3-0.53-2.97-0.12-5.01
		c-0.94,0.94-2.03,1.94-3.26,2.99c-1.24,1.06-2.56,2.04-3.94,2.96c-1.38,0.91-2.82,1.67-4.31,2.26c-1.49,0.59-2.92,0.88-4.31,0.88
		c-1.3,0-2.01-0.48-2.11-1.43c-0.1-0.96,0.21-2.13,0.92-3.51c0.71-1.38,1.76-2.85,3.14-4.4c1.38-1.55,2.9-2.89,4.55-4.03
		c1.65-1.14,3.36-1.95,5.13-2.44C348.43,62.71,350.07,62.81,351.57,63.51z M370.14,44.57c-0.41,0-1,0.43-1.77,1.28
		c-0.78,0.85-1.64,1.97-2.6,3.33c-0.96,1.36-1.95,2.93-2.99,4.7c-1.04,1.77-2,3.57-2.9,5.41c1.71-1.91,3.29-3.76,4.73-5.53
		c1.44-1.77,2.65-3.34,3.63-4.7c0.98-1.36,1.66-2.45,2.05-3.26C370.68,44.98,370.63,44.57,370.14,44.57z"/>
	<path class="st4" d="M381.62,63.63c0.65,0.81,0.61,1.69-0.12,2.63c-0.73,0.94-1.8,1.86-3.2,2.78c-1.41,0.92-2.99,1.75-4.76,2.5
		c-1.77,0.76-3.35,1.36-4.74,1.8c0.37,0.9,1.01,1.62,1.93,2.17c0.92,0.55,2.06,0.74,3.45,0.58c1.26-0.12,2.62-0.48,4.06-1.07
		c1.44-0.59,2.87-1.26,4.27-2.02c1.4-0.75,2.73-1.54,3.97-2.35c1.25-0.81,2.31-1.53,3.21-2.14c0.98-0.69,1.61-0.95,1.89-0.76
		c0.29,0.18,0.02,0.64-0.79,1.37c-2.56,2.28-5.22,4.19-7.97,5.74c-2.75,1.55-5.37,2.64-7.85,3.3c-2.48,0.65-4.7,0.84-6.66,0.58
		c-1.95-0.27-3.44-1.07-4.46-2.41c-0.77-1.02-0.99-2.17-0.64-3.45c0.35-1.28,1.05-2.56,2.11-3.85c1.06-1.28,2.35-2.46,3.88-3.54
		c1.53-1.08,3.08-1.91,4.67-2.5c1.59-0.59,3.07-0.88,4.46-0.85C379.71,62.15,380.81,62.65,381.62,63.63z M372.64,65.77
		c-1.55,0.89-2.64,1.9-3.27,3.02c-0.63,1.12-0.91,2.21-0.82,3.27c1.35-0.49,3.13-1.26,5.38-2.32c0.89-0.41,1.62-1.01,2.16-1.81
		c0.55-0.79,0.8-1.48,0.76-2.07c-0.04-0.59-0.39-0.96-1.04-1.1C375.17,64.62,374.11,64.95,372.64,65.77z"/>
	<path class="st4" d="M433.58,39.26c-0.33,0.61-0.91,1.64-1.74,3.08c-0.84,1.45-1.81,3.16-2.93,5.13c-1.12,1.97-2.34,4.11-3.66,6.41
		c-1.33,2.3-2.66,4.61-4,6.93c-1.34,2.32-2.64,4.55-3.87,6.69c-1.24,2.14-2.33,4.02-3.27,5.65c1.5,0.53,3.1,1.2,4.79,2.02
		c1.69,0.82,3.31,1.61,4.86,2.39c1.55,0.77,2.93,1.44,4.15,2.02c1.22,0.57,2.12,0.85,2.69,0.85c0.45,0,1.23-0.27,2.35-0.82
		c1.12-0.55,2.4-1.24,3.85-2.07c1.45-0.84,2.95-1.75,4.52-2.75c1.57-1,0.74-2.41,2.12-3.33c1.38-0.92-0.54-1.44,0.43-2.09
		c0.98-0.65,0.98-1.33,1.26-1.54c0.81-0.53,1.19-1.13,1.38-0.83c0.18,0.31-0.01,1.72-0.75,2.29c-0.17,0.12,0.38,1.77-0.55,2.44
		c-0.94,0.67-1.12,0.54-2.48,1.5c-1.37,0.96,1.14,1.66-0.53,2.78c-1.67,1.12-3.34,2.2-5.01,3.24c-1.67,1.04-3.25,1.95-4.73,2.75
		c-1.48,0.79-2.74,1.35-3.76,1.68c-1.22,0.37-2.55,0.36-3.97-0.03c-1.43-0.39-2.88-0.95-4.37-1.68c-1.48-0.73-2.98-1.54-4.49-2.41
		c-1.51-0.87-2.93-1.6-4.27-2.17c-0.33,0.57-0.74,1.21-1.25,1.93c-0.51,0.71-1.12,1.37-1.83,1.98c-0.71,0.61-1.53,1.12-2.44,1.53
		c-0.92,0.41-1.94,0.61-3.08,0.61c-1.06,0-1.8-0.27-2.23-0.82c-0.43-0.55-0.61-1.23-0.55-2.05c0.06-0.81,0.36-1.7,0.89-2.65
		c0.53-0.96,1.23-1.84,2.1-2.66c0.87-0.81,1.91-1.5,3.11-2.04c1.2-0.55,2.51-0.83,3.94-0.83c0.12,0,0.24,0.01,0.36,0.03
		c0.12,0.02,0.27,0.03,0.43,0.03c0.82-1.59,1.69-3.32,2.63-5.19c0.94-1.87,1.88-3.78,2.84-5.74c0.96-1.95,1.88-3.88,2.78-5.77
		c0.9-1.89,1.72-3.64,2.48-5.25c0.75-1.61,1.4-3.02,1.95-4.24c0.55-1.22,0.95-2.12,1.19-2.69c-2.48,1.87-4.79,3.73-6.9,5.56
		c-2.12,1.83-3.76,3.54-4.92,5.13c-1.16,1.59-1.69,3.02-1.59,4.31c0.1,1.28,1.13,2.31,3.08,3.08c0.17,0.08,0.19,0.36,0.06,0.85
		c-0.12,0.49-0.33,1-0.64,1.53c-0.31,0.53-0.69,0.97-1.16,1.31c-0.47,0.35-0.97,0.4-1.5,0.15c-1.63-0.69-2.77-1.5-3.42-2.44
		c-0.65-0.94-0.94-1.96-0.86-3.06c0.08-1.1,0.48-2.26,1.19-3.48c0.71-1.22,1.63-2.45,2.75-3.7c1.12-1.24,2.39-2.47,3.82-3.69
		c1.42-1.22,2.87-2.37,4.33-3.45c1.47-1.08,2.91-2.08,4.34-3.02c1.43-0.94,2.71-1.73,3.85-2.38c0.77-0.57,1.6-1.07,2.48-1.5
		c0.87-0.43,1.65-0.7,2.32-0.83c0.67-0.12,1.17-0.09,1.5,0.09C433.96,38.2,433.94,38.61,433.58,39.26z M408.85,76.51
		c-0.2-0.04-0.39-0.07-0.55-0.09c-0.17-0.02-0.35-0.03-0.55-0.03c-1.42,0-2.57,0.27-3.42,0.79c-0.86,0.53-1.48,1.12-1.86,1.77
		c-0.39,0.65-0.56,1.26-0.52,1.83c0.04,0.57,0.27,0.92,0.67,1.04c0.77,0.2,1.65,0,2.63-0.61c0.98-0.61,1.96-1.77,2.93-3.48
		L408.85,76.51z"/>
	<path class="st4" d="M439.45,68.64c0.53-0.41,1.2-0.91,2.02-1.53c0.81-0.61,1.66-1.21,2.53-1.8c0.88-0.59,1.72-1.1,2.53-1.53
		c0.81-0.43,1.51-0.64,2.08-0.64c0.41,0,0.6,0.27,0.58,0.82c-0.02,0.55-0.14,1.23-0.36,2.05c-0.23,0.82-0.5,1.7-0.82,2.66
		c-0.33,0.96-0.62,1.84-0.88,2.66c-0.27,0.82-0.43,1.49-0.49,2.05c-0.06,0.55,0.07,0.83,0.4,0.83c0.53,0,1.13-0.27,1.8-0.8
		c0.67-0.53,1.4-1.2,2.17-2.02c0.77-0.81,1.57-1.72,2.38-2.72c0.81-1,1.63-1.96,2.44-2.9c0.24-0.29,0.58-0.48,1.01-0.58
		c0.42-0.1,0.85-0.14,1.28-0.12c0.43,0.02,0.81,0.1,1.16,0.24c0.34,0.14,0.56,0.34,0.64,0.58c0.21,0.49,0.16,1.21-0.12,2.17
		c-0.29,0.96-0.56,1.91-0.82,2.87c-0.26,0.96-0.4,1.78-0.4,2.47c0,0.69,0.41,1.04,1.22,1.04c0.82,0,1.44-0.13,2.27-0.83
		c2.39-2,4.14-3.25,5.04-4.18c0.24-0.24,1.58-1.54,1.73-1.06c0.09,0.27,0.24,0.59-0.51,1.29c-3,2.81-6.12,5.71-7.61,6.63
		c-1.6,0.99-3.69,2.04-5.83,0.8c-0.39-0.22-0.69-0.51-0.92-0.86c-0.22-0.35-0.36-0.74-0.42-1.19c-0.06-0.45-0.09-0.92-0.09-1.41
		c0.04-1.1,0.31-2.38,0.79-3.85c-0.65,0.73-1.43,1.63-2.35,2.68c-0.91,1.06-1.88,2.07-2.9,3.03c-1.02,0.96-2.06,1.78-3.11,2.47
		c-1.06,0.69-2.08,1.04-3.05,1.04c-0.77,0-1.27-0.27-1.5-0.82c-0.22-0.55-0.3-1.23-0.21-2.05c0.08-0.81,0.27-1.69,0.55-2.63
		c0.29-0.94,0.57-1.81,0.86-2.63c0.28-0.81,0.51-1.5,0.67-2.05c0.16-0.55,0.19-0.82,0.06-0.82c-0.45,0-0.88,0.14-1.32,0.43
		c-0.42,0.29-0.98,0.67-1.68,1.16c-0.53,0.36-0.98,0.6-1.34,0.7c-0.37,0.1-0.6,0.1-0.7,0c-0.1-0.1-0.06-0.29,0.12-0.58
		C438.5,69.45,438.88,69.09,439.45,68.64z"/>
	<path class="st4" d="M468.32,64.63c0.39-0.36,1.06-1.1,1.68-1.55c0.61-0.45,1.19-0.82,1.74-1.1c0.55-0.28,1.02-0.42,1.4-0.4
		c0.39,0.02,0.58,0.34,0.58,0.95c0,1.26,0.41,1.98,1.22,2.14c0.81,0.17,1.81-0.04,2.99-0.61c0.9-0.45,1.59-0.84,2.08-1.19
		c0.49-0.35,1.12-0.46,1.89-0.34c0.37,0.08,0.64,0.28,0.82,0.61c0.18,0.33,0.3,0.7,0.34,1.13c0.04,0.43,0.01,0.88-0.09,1.35
		c-0.1,0.47-0.25,0.89-0.46,1.25c-0.25,0.45-0.76,0.94-1.56,1.47c-0.79,0.53-1.73,1.08-2.81,1.65c-1.08,0.57-2.21,1.16-3.39,1.77
		c-1.18,0.61-2.29,1.22-3.33,1.83c-1.04,0.61-1.92,1.2-2.65,1.77c-0.73,0.57-1.16,1.1-1.28,1.59c0.28-0.2,0.73-0.43,1.34-0.67
		c0.61-0.25,1.27-0.45,1.98-0.61c0.71-0.16,1.45-0.26,2.2-0.31c0.75-0.04,1.43,0,2.05,0.12c0.53,0.12,1.04,0.28,1.53,0.49
		c2.81-1.63,5.22-3.06,7.24-4.3c2.02-1.24,3.61-2.29,4.79-3.15c0.53-0.4,1.01-0.68,1.44-0.82c0.43-0.14,0.71-0.16,0.86-0.06
		c0.14,0.1,0.12,0.3-0.06,0.58c-0.18,0.28-0.6,0.67-1.25,1.16c-1.06,0.78-2.61,1.83-4.64,3.17c-2.04,1.34-4.38,2.79-7.02,4.34
		c0.77,0.77,1.12,1.77,1.04,2.99c-0.08,1.22-0.45,2.47-1.1,3.76c-0.65,1.28-1.52,2.51-2.6,3.7c-1.08,1.18-2.24,2.16-3.48,2.93
		c-1.24,0.77-2.48,1.25-3.73,1.43c-1.24,0.18-2.35-0.09-3.33-0.82c-0.73-0.61-1.13-1.4-1.19-2.35c-0.06-0.96,0.17-1.98,0.7-3.06
		c0.53-1.08,1.31-2.15,2.35-3.2c1.04-1.06,2.29-2,3.75-2.81c0.33-0.21,0.63-0.39,0.92-0.55c0.28-0.17,0.59-0.33,0.92-0.49
		c-0.82-0.53-1.66-0.74-2.54-0.64c-0.87,0.1-1.52,0.25-1.92,0.46c-0.65,0.32-1.19,0.46-1.62,0.4c-0.43-0.06-0.64-0.22-0.64-0.46
		c0-1.02,0.31-2.02,0.95-3.02c0.63-1,1.49-2.01,2.56-3.02c1.08-1.02,2.33-2.03,3.76-3.05c1.42-1.02,2.95-2.07,4.58-3.18
		c-1.55,0.69-2.86,1.05-3.94,1.07c-1.08,0.02-1.98-0.02-2.65-0.27C467.45,65.46,468.32,64.63,468.32,64.63z M465.9,89.46
		c0.53,0.53,1.12,0.73,1.77,0.61c0.65-0.12,1.3-0.44,1.95-0.95c0.65-0.51,1.28-1.17,1.86-1.99c0.59-0.81,1.07-1.68,1.43-2.59
		c0.37-0.92,0.6-1.81,0.71-2.69c0.1-0.88-0.01-1.64-0.34-2.29c-0.29,0.2-0.57,0.37-0.86,0.52c-0.28,0.14-0.57,0.3-0.85,0.46
		c-1.18,0.65-2.21,1.42-3.09,2.29c-0.88,0.87-1.56,1.75-2.05,2.62c-0.49,0.87-0.8,1.68-0.92,2.41
		C465.41,88.61,465.53,89.14,465.9,89.46z"/>
</g>
<g class="st9">
	<path class="st4" d="M12.73,96.47c0,0-2.5,1.77-0.63,1.93c1.88,0.16,5.4,0.7,10.17,3.29c4.77,2.58,15.89,8.92,15.89,8.92
		s4.77,2.43,8.61,2.43c3.83,0,7.59-0.47,13.3-3.99c5.71-3.52,23.88-15.42,23.88-15.42s1.95-1.23,0.37-2.19
		c-2.53-1.54-11.1,5.48-18.39,8.31c-5.96,2.31-8.73,2.85-15.17,1.79c-6.65-1.1-7.04-1.96-5.71-2.66c1.33-0.7,9.96-1.18,13.4-2.49
		c1.33-0.51,2.53-0.59,2.91-2.14c0.2-0.82-0.29-1.66-1.92-1.39c-2.85,0.46-8.29,0.15-12.83-0.09c-4.54-0.24-12.05-2.19-16.75-2.19
		C23.61,90.57,17.66,92.69,12.73,96.47z"/>
	<path class="st4" d="M58.9,101.02c0,0,1.28-0.11,2.66-0.59c0.41-1.63,0.77-2.56,1.26-3.25c0.55-0.78,0-0.9-0.71-0.71
		C61.12,96.74,59.37,98.91,58.9,101.02z"/>
	<path class="st4" d="M70.03,93.87c0,0-1.9-0.88-4.58,1.19c-1.65,1.28-2.79,5.04-2.79,5.04s0.89-0.34,1.75-0.64
		C67.15,95.8,70.03,93.87,70.03,93.87z"/>
	<path class="st4" d="M77.36,92.65c0,0-1.79-1.37-3.98-0.2c-2.19,1.17-6.26,5.09-6.65,5.48c-0.39,0.39-0.53,0.81-0.53,0.81
		l2.39-0.99L77.36,92.65z"/>
</g>
</svg>
